<svg id="eSZOekRMw5z1" xmlns="http://www.w3.org/2000/svg" xmlns:xlink="http://www.w3.org/1999/xlink" viewBox="0 0 24 24" shape-rendering="geometricPrecision" text-rendering="geometricPrecision"><path d="M15.2957,2.50196c.1124-.00998.2248.01832.3191.08033l4.66,3.06562c.1406.09248.2252.24945.2252.41772v14.21757c0,.2625-.2031.4803-.4649.4988l-10.20005.7168c-.13835.0097-.27453-.0385-.37599-.1331s-.15906-.227-.15906-.3657v-10.9912c0-.25781.1961-.47338.4528-.49772l.84-.07964c.1948-.01847.3824.07836.4802.2478l4.3775,7.58356.1695-.0179v-7.55463c0-.27615.2239-.5.5-.5s.5.22385.5.5v8.00443c0,.2557-.193.4703-.4473.4972l-.94.0996c-.1966.0208-.3869-.0761-.4857-.2473l-4.3795-7.5869-.0675.0064v9.9999l9.2-.6465v-13.48191L15.2107,3.51346L3.5,4.5544v12.3974l2.32,2.6994v-12.54495c0-.2606.20016-.47751.45993-.49839l9.79997-.78794c.2753-.02213.5164.18307.5385.45833s-.1831.51633-.4583.53846L6.82,7.56766L6.82,21c0,.2091-.13013.3961-.32621.4688s-.41668.0157-.55298-.1429l-3.32-3.8628C2.54286,17.3724,2.5,17.2568,2.5,17.1372v-13.04032c0-.25899.19776-.47511.45573-.49804L15.2957,2.50196Z" transform="translate(0 0.000001)" clip-rule="evenodd" fill="#fff" fill-rule="evenodd"/></svg>
